<?xml version="1.0" encoding="UTF-8" standalone="no"?>
<!DOCTYPE svg PUBLIC "-//W3C//DTD SVG 1.1//EN" "http://www.w3.org/Graphics/SVG/1.1/DTD/svg11.dtd">
<svg width="100%" height="100%" viewBox="0 0 110 75" version="1.1" xmlns="http://www.w3.org/2000/svg" xmlns:xlink="http://www.w3.org/1999/xlink" xml:space="preserve" xmlns:serif="http://www.serif.com/" style="fill-rule:evenodd;clip-rule:evenodd;stroke-linejoin:round;stroke-miterlimit:2;">
    <g transform="matrix(1,0,0,1,-905,-925)">
        <g>
            <g transform="matrix(1,0,0,1,65,-30)">
                <path d="M895.001,1026.12C896.35,1024.78 899.062,1022.09 902.592,1018.63C906.232,1015.07 910.744,1010.69 915.499,1006.1C919.775,1001.97 924.25,997.666 928.467,993.627C939.058,983.485 948,975 948,975C948,975 939.515,983.942 929.373,994.533C925.334,998.751 921.034,1003.23 916.901,1007.5C912.307,1012.26 907.931,1016.77 904.368,1020.41C899.342,1025.54 895.943,1028.94 895.943,1028.94C895.422,1029.46 894.578,1029.46 894.057,1028.94C894.057,1028.94 890.654,1025.54 885.622,1020.42C882.053,1016.78 877.663,1012.29 873.069,1007.53C866.716,1000.96 859.979,993.896 854.395,988.045C847.228,980.534 842,975 842,975C842,975 847.534,980.228 855.045,987.395C860.896,992.979 867.955,999.716 874.531,1006.07C879.286,1010.66 883.784,1015.05 887.418,1018.62C890.945,1022.08 893.655,1024.78 895.001,1026.12Z" style="fill:white;"/>
            </g>
            <g transform="matrix(1,0,0,1,65,-48)">
                <path d="M895.001,1026.12C896.35,1024.78 899.062,1022.09 902.592,1018.63C906.232,1015.07 910.744,1010.69 915.499,1006.1C919.775,1001.97 924.25,997.666 928.467,993.627C939.058,983.485 948,975 948,975C948,975 939.515,983.942 929.373,994.533C925.334,998.751 921.034,1003.23 916.901,1007.5C912.307,1012.26 907.931,1016.77 904.368,1020.41C899.342,1025.54 895.943,1028.94 895.943,1028.94C895.422,1029.46 894.578,1029.46 894.057,1028.94C894.057,1028.94 890.654,1025.54 885.622,1020.42C882.053,1016.78 877.663,1012.29 873.069,1007.53C866.716,1000.96 859.979,993.896 854.395,988.045C847.228,980.534 842,975 842,975C842,975 847.534,980.228 855.045,987.395C860.896,992.979 867.955,999.716 874.531,1006.07C879.286,1010.66 883.784,1015.05 887.418,1018.62C890.945,1022.08 893.655,1024.78 895.001,1026.12Z" style="fill:white;"/>
            </g>
        </g>
    </g>
</svg>
